<svg width="97" height="16" viewBox="0 0 97 16" fill="none" xmlns="http://www.w3.org/2000/svg">
<path d="M15.6228 5.82362L10.9652 5.14671L8.88308 0.925658C8.82622 0.810089 8.73266 0.716532 8.61709 0.659664C8.32725 0.516578 7.97503 0.635817 7.83011 0.925658L5.74802 5.14671L1.09038 5.82362C0.961965 5.84196 0.844561 5.9025 0.754673 5.99422C0.646004 6.10591 0.586123 6.25618 0.588186 6.412C0.59025 6.56782 0.654091 6.71645 0.76568 6.82522L4.13555 10.1107L3.3394 14.75C3.32073 14.8579 3.33267 14.9689 3.37387 15.0704C3.41507 15.1719 3.48388 15.2598 3.5725 15.3241C3.66112 15.3885 3.766 15.4268 3.87524 15.4345C3.98449 15.4423 4.09373 15.4194 4.19058 15.3682L8.3566 13.1779L12.5226 15.3682C12.6363 15.4288 12.7684 15.4489 12.895 15.4269C13.2142 15.3719 13.4288 15.0692 13.3738 14.75L12.5776 10.1107L15.9475 6.82522C16.0392 6.73533 16.0998 6.61793 16.1181 6.48952C16.1676 6.16849 15.9438 5.87131 15.6228 5.82362Z" fill="#FECB1C"/>
<path d="M36.3057 5.82362L31.648 5.14671L29.5659 0.925658C29.5091 0.810089 29.4155 0.716532 29.3 0.659664C29.0101 0.516578 28.6579 0.635817 28.513 0.925658L26.4309 5.14671L21.7732 5.82362C21.6448 5.84196 21.5274 5.9025 21.4375 5.99422C21.3289 6.10591 21.269 6.25618 21.271 6.412C21.2731 6.56782 21.337 6.71645 21.4485 6.82522L24.8184 10.1107L24.0223 14.75C24.0036 14.8579 24.0155 14.9689 24.0567 15.0704C24.0979 15.1719 24.1667 15.2598 24.2554 15.3241C24.344 15.3885 24.4489 15.4268 24.5581 15.4345C24.6673 15.4423 24.7766 15.4194 24.8734 15.3682L29.0395 13.1779L33.2055 15.3682C33.3192 15.4288 33.4513 15.4489 33.5779 15.4269C33.8971 15.3719 34.1117 15.0692 34.0567 14.75L33.2605 10.1107L36.6304 6.82522C36.7221 6.73533 36.7826 6.61793 36.801 6.48952C36.8505 6.16849 36.6267 5.87131 36.3057 5.82362Z" fill="#FECB1C"/>
<path d="M56.2642 5.82362L51.6065 5.14671L49.5244 0.925658C49.4676 0.810089 49.374 0.716532 49.2584 0.659664C48.9686 0.516578 48.6164 0.635817 48.4715 0.925658L46.3894 5.14671L41.7317 5.82362C41.6033 5.84196 41.4859 5.9025 41.396 5.99422C41.2874 6.10591 41.2275 6.25618 41.2295 6.412C41.2316 6.56782 41.2954 6.71645 41.407 6.82522L44.7769 10.1107L43.9808 14.75C43.9621 14.8579 43.974 14.9689 44.0152 15.0704C44.0564 15.1719 44.1252 15.2598 44.2139 15.3241C44.3025 15.3885 44.4074 15.4268 44.5166 15.4345C44.6258 15.4423 44.7351 15.4194 44.8319 15.3682L48.998 13.1779L53.164 15.3682C53.2777 15.4288 53.4098 15.4489 53.5364 15.4269C53.8556 15.3719 54.0702 15.0692 54.0152 14.75L53.219 10.1107L56.5889 6.82522C56.6806 6.73533 56.7411 6.61793 56.7595 6.48952C56.809 6.16849 56.5852 5.87131 56.2642 5.82362Z" fill="#FECB1C"/>
<path d="M76.2232 5.82362L71.5655 5.14671L69.4834 0.925658C69.4266 0.810089 69.333 0.716532 69.2174 0.659664C68.9276 0.516578 68.5754 0.635817 68.4305 0.925658L66.3484 5.14671L61.6907 5.82362C61.5623 5.84196 61.4449 5.9025 61.355 5.99422C61.2463 6.10591 61.1865 6.25618 61.1885 6.412C61.1906 6.56782 61.2544 6.71645 61.366 6.82522L64.7359 10.1107L63.9397 14.75C63.9211 14.8579 63.933 14.9689 63.9742 15.0704C64.0154 15.1719 64.0842 15.2598 64.1728 15.3241C64.2615 15.3885 64.3663 15.4268 64.4756 15.4345C64.5848 15.4423 64.6941 15.4194 64.7909 15.3682L68.9569 13.1779L73.123 15.3682C73.2367 15.4288 73.3688 15.4489 73.4953 15.4269C73.8145 15.3719 74.0292 15.0692 73.9741 14.75L73.178 10.1107L76.5479 6.82522C76.6396 6.73533 76.7001 6.61793 76.7185 6.48952C76.768 6.16849 76.5442 5.87131 76.2232 5.82362Z" fill="#FECB1C"/>
<path d="M81.3135 5.99422C81.2048 6.10591 81.145 6.25618 81.147 6.412C81.1491 6.56782 81.2129 6.71645 81.3245 6.82522L84.6944 10.1107L83.8982 14.75L96.3259 6.64113L92.9565 9.92615L92.8595 10.0207L92.8824 10.1543L93.6786 14.7936L93.6786 14.7938C93.7094 14.9721 93.5896 15.142 93.41 15.1729L93.4097 15.173C93.3384 15.1854 93.2646 15.1737 93.2026 15.1407L93.2014 15.1401L89.0354 12.9497L88.9154 12.8867L88.7955 12.9497L84.6295 15.1401L84.6291 15.1403C84.5748 15.1689 84.5136 15.1818 84.4524 15.1774C84.3912 15.1731 84.3325 15.1516 84.2828 15.1156C84.2332 15.0795 84.1946 15.0303 84.1715 14.9734C84.1485 14.9166 84.1418 14.8544 84.1522 14.7939L84.1523 14.7936L84.9484 10.1543L84.9714 10.0207L84.8743 9.92615L81.5045 6.64066L81.5044 6.64065C81.4418 6.57956 81.4059 6.49609 81.4048 6.40859C81.4036 6.32123 81.4371 6.23698 81.4979 6.17429M81.3135 5.99422L81.4976 6.17463C81.4977 6.17452 81.4978 6.1744 81.4979 6.17429M81.3135 5.99422L81.4983 6.17396C81.4982 6.17407 81.498 6.17418 81.4979 6.17429M81.3135 5.99422C81.4034 5.9025 81.5208 5.84196 81.6492 5.82362L86.3069 5.14671L88.389 0.925658C88.5339 0.635817 88.8861 0.516578 89.1759 0.659664L96.3261 6.64097C96.378 6.58999 96.4116 6.52423 96.4218 6.45307L96.4222 6.45021C96.4495 6.27354 96.3266 6.10592 96.1441 6.07863C96.144 6.07861 96.1439 6.07859 96.1438 6.07858L91.4869 5.40179L91.3528 5.38229L91.2928 5.26073L89.2108 1.03968L89.2106 1.03946C89.1789 0.974941 89.1266 0.922688 89.0621 0.89094L89.0618 0.890793C88.9001 0.810969 88.7018 0.877035 88.6198 1.0404C88.6197 1.04058 88.6196 1.04076 88.6195 1.04093L86.538 5.26073L86.4781 5.38229L86.3439 5.40179L81.6863 6.0787L81.6857 6.07879C81.6146 6.08894 81.5489 6.12245 81.4979 6.17429" stroke="#FECB1C" stroke-width="0.515517"/>
</svg>
