<svg width="97" height="16" viewBox="0 0 97 16" fill="none" xmlns="http://www.w3.org/2000/svg">
<path d="M15.2844 5.82362L10.6268 5.14671L8.5447 0.925658C8.48784 0.810089 8.39428 0.716532 8.27871 0.659664C7.98887 0.516578 7.63666 0.635817 7.49173 0.925658L5.40964 5.14671L0.751997 5.82362C0.623586 5.84196 0.506182 5.9025 0.416294 5.99422C0.307625 6.10591 0.247744 6.25618 0.249807 6.412C0.251871 6.56782 0.315712 6.71645 0.427301 6.82522L3.79717 10.1107L3.00102 14.75C2.98235 14.8579 2.99429 14.9689 3.0355 15.0704C3.0767 15.1719 3.14551 15.2598 3.23412 15.3241C3.32274 15.3885 3.42762 15.4268 3.53686 15.4345C3.64611 15.4423 3.75535 15.4194 3.8522 15.3682L8.01822 13.1779L12.1842 15.3682C12.298 15.4288 12.4301 15.4489 12.5566 15.4269C12.8758 15.3719 13.0905 15.0692 13.0354 14.75L12.2393 10.1107L15.6091 6.82522C15.7009 6.73533 15.7614 6.61793 15.7797 6.48952C15.8293 6.16849 15.6055 5.87131 15.2844 5.82362Z" fill="#FECB1C"/>
<path d="M35.9675 5.82362L31.3099 5.14671L29.2278 0.925658C29.1709 0.810089 29.0774 0.716532 28.9618 0.659664C28.672 0.516578 28.3198 0.635817 28.1748 0.925658L26.0927 5.14671L21.4351 5.82362C21.3067 5.84196 21.1893 5.9025 21.0994 5.99422C20.9907 6.10591 20.9308 6.25618 20.9329 6.412C20.935 6.56782 20.9988 6.71645 21.1104 6.82522L24.4803 10.1107L23.6841 14.75C23.6655 14.8579 23.6774 14.9689 23.7186 15.0704C23.7598 15.1719 23.8286 15.2598 23.9172 15.3241C24.0058 15.3885 24.1107 15.4268 24.22 15.4345C24.3292 15.4423 24.4385 15.4194 24.5353 15.3682L28.7013 13.1779L32.8673 15.3682C32.9811 15.4288 33.1132 15.4489 33.2397 15.4269C33.5589 15.3719 33.7736 15.0692 33.7185 14.75L32.9224 10.1107L36.2922 6.82522C36.384 6.73533 36.4445 6.61793 36.4628 6.48952C36.5124 6.16849 36.2886 5.87131 35.9675 5.82362Z" fill="#FECB1C"/>
<path d="M55.926 5.82362L51.2684 5.14671L49.1863 0.925658C49.1294 0.810089 49.0359 0.716532 48.9203 0.659664C48.6305 0.516578 48.2783 0.635817 48.1333 0.925658L46.0512 5.14671L41.3936 5.82362C41.2652 5.84196 41.1478 5.9025 41.0579 5.99422C40.9492 6.10591 40.8893 6.25618 40.8914 6.412C40.8935 6.56782 40.9573 6.71645 41.0689 6.82522L44.4388 10.1107L43.6426 14.75C43.624 14.8579 43.6359 14.9689 43.6771 15.0704C43.7183 15.1719 43.7871 15.2598 43.8757 15.3241C43.9643 15.3885 44.0692 15.4268 44.1785 15.4345C44.2877 15.4423 44.397 15.4194 44.4938 15.3682L48.6598 13.1779L52.8258 15.3682C52.9396 15.4288 53.0717 15.4489 53.1982 15.4269C53.5174 15.3719 53.7321 15.0692 53.677 14.75L52.8809 10.1107L56.2507 6.82522C56.3425 6.73533 56.403 6.61793 56.4213 6.48952C56.4709 6.16849 56.2471 5.87131 55.926 5.82362Z" fill="#FECB1C"/>
<path d="M75.885 5.82362L71.2274 5.14671L69.1453 0.925658C69.0884 0.810089 68.9949 0.716532 68.8793 0.659664C68.5895 0.516578 68.2372 0.635817 68.0923 0.925658L66.0102 5.14671L61.3526 5.82362C61.2242 5.84196 61.1068 5.9025 61.0169 5.99422C60.9082 6.10591 60.8483 6.25618 60.8504 6.412C60.8525 6.56782 60.9163 6.71645 61.0279 6.82522L64.3978 10.1107L63.6016 14.75C63.5829 14.8579 63.5949 14.9689 63.6361 15.0704C63.6773 15.1719 63.7461 15.2598 63.8347 15.3241C63.9233 15.3885 64.0282 15.4268 64.1374 15.4345C64.2467 15.4423 64.3559 15.4194 64.4528 15.3682L68.6188 13.1779L72.7848 15.3682C72.8986 15.4288 73.0306 15.4489 73.1572 15.4269C73.4764 15.3719 73.691 15.0692 73.636 14.75L72.8399 10.1107L76.2097 6.82522C76.3014 6.73533 76.362 6.61793 76.3803 6.48952C76.4299 6.16849 76.2061 5.87131 75.885 5.82362Z" fill="#FECB1C"/>
<path d="M80.9751 5.99422C80.8665 6.10591 80.8066 6.25618 80.8086 6.412C80.8107 6.56782 80.8745 6.71645 80.9861 6.82522L84.356 10.1107L83.5599 14.75L95.9876 6.64113L92.6182 9.92615L92.5211 10.0207L92.5441 10.1543L93.3402 14.7936L93.3402 14.7938C93.371 14.9721 93.2512 15.142 93.0717 15.1729L93.0713 15.173C93 15.1854 92.9262 15.1737 92.8642 15.1407L92.863 15.1401L88.697 12.9497L88.5771 12.8867L88.4571 12.9497L84.2911 15.1401L84.2907 15.1403C84.2364 15.1689 84.1752 15.1818 84.114 15.1774C84.0528 15.1731 83.9941 15.1516 83.9444 15.1156C83.8948 15.0795 83.8562 15.0303 83.8332 14.9734C83.8101 14.9166 83.8034 14.8544 83.8138 14.7939L83.8139 14.7936L84.6101 10.1543L84.633 10.0207L84.5359 9.92615L81.1661 6.64066L81.1661 6.64065C81.1034 6.57956 81.0675 6.49609 81.0664 6.40859C81.0652 6.32123 81.0987 6.23698 81.1596 6.17429M80.9751 5.99422L81.1592 6.17463C81.1593 6.17452 81.1595 6.1744 81.1596 6.17429M80.9751 5.99422L81.1599 6.17396C81.1598 6.17407 81.1597 6.17418 81.1596 6.17429M80.9751 5.99422C81.065 5.9025 81.1824 5.84196 81.3108 5.82362L85.9685 5.14671L88.0506 0.925658C88.1955 0.635817 88.5477 0.516578 88.8375 0.659664L95.9877 6.64097C96.0397 6.58999 96.0732 6.52423 96.0834 6.45307L96.0838 6.45021C96.1111 6.27354 95.9882 6.10592 95.8057 6.07863C95.8056 6.07861 95.8055 6.07859 95.8054 6.07858L91.1486 5.40179L91.0144 5.38229L90.9545 5.26073L88.8724 1.03968L88.8723 1.03946C88.8405 0.974941 88.7883 0.922688 88.7237 0.89094L88.7234 0.890793C88.5618 0.810969 88.3634 0.877035 88.2814 1.0404C88.2813 1.04058 88.2812 1.04076 88.2811 1.04093L86.1996 5.26073L86.1397 5.38229L86.0056 5.40179L81.3479 6.0787L81.3473 6.07879C81.2762 6.08894 81.2105 6.12245 81.1596 6.17429" stroke="#FECB1C" stroke-width="0.515517"/>
</svg>
