<svg width="97" height="16" viewBox="0 0 97 16" fill="none" xmlns="http://www.w3.org/2000/svg">
<path d="M15.9407 5.78761L11.2836 5.11078L9.20171 0.89022C9.14485 0.774664 9.0513 0.681118 8.93574 0.624257C8.64593 0.481187 8.29376 0.600412 8.14886 0.89022L6.06701 5.11078L1.4099 5.78761C1.2815 5.80596 1.16411 5.86649 1.07423 5.9582C0.965578 6.06988 0.905703 6.22013 0.907766 6.37593C0.90983 6.53173 0.973663 6.68034 1.08524 6.7891L4.45472 10.0742L3.65866 14.713C3.64 14.8209 3.65194 14.9319 3.69313 15.0333C3.73433 15.1348 3.80313 15.2227 3.89174 15.287C3.98034 15.3514 4.08521 15.3896 4.19444 15.3974C4.30367 15.4052 4.41291 15.3822 4.50975 15.3311L8.67528 13.141L12.8408 15.3311C12.9545 15.3916 13.0866 15.4118 13.2132 15.3898C13.5323 15.3348 13.7469 15.0321 13.6919 14.713L12.8958 10.0742L16.2653 6.7891C16.357 6.69923 16.4176 6.58184 16.4359 6.45344C16.4854 6.13245 16.2617 5.8353 15.9407 5.78761Z" fill="#FECB1C"/>
<path d="M36.6213 5.78761L31.9642 5.11078L29.8824 0.89022C29.8255 0.774664 29.732 0.681118 29.6164 0.624257C29.3266 0.481187 28.9744 0.600412 28.8295 0.89022L26.7477 5.11078L22.0906 5.78761C21.9622 5.80596 21.8448 5.86649 21.7549 5.9582C21.6462 6.06988 21.5864 6.22013 21.5884 6.37593C21.5905 6.53173 21.6543 6.68034 21.7659 6.7891L25.1354 10.0742L24.3393 14.713C24.3207 14.8209 24.3326 14.9319 24.3738 15.0333C24.415 15.1348 24.4838 15.2227 24.5724 15.287C24.661 15.3514 24.7659 15.3896 24.8751 15.3974C24.9843 15.4052 25.0936 15.3822 25.1904 15.3311L29.3559 13.141L33.5215 15.3311C33.6352 15.3916 33.7673 15.4118 33.8938 15.3898C34.213 15.3348 34.4276 15.0321 34.3726 14.713L33.5765 10.0742L36.946 6.7891C37.0377 6.69923 37.0982 6.58184 37.1166 6.45344C37.1661 6.13245 36.9423 5.8353 36.6213 5.78761Z" fill="#FECB1C"/>
<path d="M56.5776 5.78761L51.9205 5.11078L49.8387 0.89022C49.7818 0.774664 49.6883 0.681118 49.5727 0.624257C49.2829 0.481187 48.9307 0.600412 48.7858 0.89022L46.704 5.11078L42.0469 5.78761C41.9185 5.80596 41.8011 5.86649 41.7112 5.9582C41.6025 6.06988 41.5427 6.22013 41.5447 6.37593C41.5468 6.53173 41.6106 6.68034 41.7222 6.7891L45.0917 10.0742L44.2956 14.713C44.277 14.8209 44.2889 14.9319 44.3301 15.0333C44.3713 15.1348 44.4401 15.2227 44.5287 15.287C44.6173 15.3514 44.7222 15.3896 44.8314 15.3974C44.9406 15.4052 45.0499 15.3822 45.1467 15.3311L49.3122 13.141L53.4778 15.3311C53.5915 15.3916 53.7236 15.4118 53.8501 15.3898C54.1693 15.3348 54.3839 15.0321 54.3289 14.713L53.5328 10.0742L56.9023 6.7891C56.994 6.69923 57.0545 6.58184 57.0729 6.45344C57.1224 6.13245 56.8986 5.8353 56.5776 5.78761Z" fill="#FECB1C"/>
<path d="M76.5337 5.78761L71.8766 5.11078L69.7947 0.89022C69.7379 0.774664 69.6443 0.681118 69.5288 0.624257C69.239 0.481187 68.8868 0.600412 68.7419 0.89022L66.66 5.11078L62.0029 5.78761C61.8745 5.80596 61.7571 5.86649 61.6673 5.9582C61.5586 6.06988 61.4987 6.22013 61.5008 6.37593C61.5028 6.53173 61.5667 6.68034 61.6783 6.7891L65.0477 10.0742L64.2517 14.713C64.233 14.8209 64.245 14.9319 64.2862 15.0333C64.3273 15.1348 64.3961 15.2227 64.4848 15.287C64.5734 15.3514 64.6782 15.3896 64.7875 15.3974C64.8967 15.4052 65.0059 15.3822 65.1028 15.3311L69.2683 13.141L73.4338 15.3311C73.5476 15.3916 73.6796 15.4118 73.8062 15.3898C74.1253 15.3348 74.3399 15.0321 74.2849 14.713L73.4889 10.0742L76.8583 6.7891C76.9501 6.69923 77.0106 6.58184 77.0289 6.45344C77.0785 6.13245 76.8547 5.8353 76.5337 5.78761Z" fill="#FECB1C"/>
<path d="M84.2085 14.713L85.0045 10.0742L81.635 6.7891C81.5235 6.68034 81.4596 6.53173 81.4576 6.37593C81.4555 6.22013 81.5154 6.06988 81.624 5.9582M84.2085 14.713L81.8084 6.13826M84.2085 14.713C84.1898 14.8209 84.2017 14.9319 84.2429 15.0333M84.2085 14.713L84.2429 15.0333M81.624 5.9582L81.8081 6.13859C81.8082 6.13848 81.8083 6.13837 81.8084 6.13826M81.624 5.9582C81.7139 5.86649 81.8313 5.80596 81.9597 5.78761L81.624 5.9582ZM81.8084 6.13826C81.7476 6.20094 81.7141 6.28517 81.7153 6.37252C81.7164 6.46001 81.7523 6.54347 81.8149 6.60455L81.815 6.60457L85.1844 9.88967L85.2815 9.98426L85.2585 10.1178L84.4625 14.7566L84.4624 14.7569C84.452 14.8174 84.4587 14.8795 84.4817 14.9364C84.5048 14.9932 84.5434 15.0425 84.593 15.0785C84.6426 15.1146 84.7014 15.136 84.7626 15.1404C84.8238 15.1447 84.885 15.1318 84.9392 15.1032L84.9396 15.103L89.1051 12.9129L89.2251 12.8499L89.345 12.9129L93.5106 15.103L93.5117 15.1036C93.5738 15.1366 93.6475 15.1483 93.7188 15.1359L93.7192 15.1358C93.8987 15.1049 94.0185 14.935 93.9877 14.7568L93.9877 14.7566L93.1916 10.1178L93.1687 9.98426L93.2657 9.88967L96.6347 6.60503C96.6348 6.60498 96.6348 6.60492 96.6349 6.60487C96.6868 6.5539 96.7204 6.48815 96.7306 6.41699L96.731 6.41414C96.7583 6.23749 96.6354 6.06988 96.4529 6.04259C96.4528 6.04258 96.4527 6.04256 96.4526 6.04254L91.7963 5.36583L91.6622 5.34634L91.6022 5.2248L89.5204 1.00423L89.5203 1.00401C89.4885 0.939497 89.4363 0.88725 89.3718 0.855506L89.3715 0.855359C89.2098 0.775546 89.0115 0.841601 88.9295 1.00495C88.9294 1.00512 88.9293 1.0053 88.9292 1.00548L86.848 5.2248L86.788 5.34634L86.6539 5.36583L81.9968 6.04266L81.9962 6.04275C81.9251 6.05291 81.8594 6.08641 81.8084 6.13826ZM84.2429 15.0333C84.2841 15.1348 84.3529 15.2227 84.4415 15.287M84.2429 15.0333L84.4415 15.287M84.4415 15.287C84.5301 15.3514 84.635 15.3896 84.7442 15.3974M84.4415 15.287L84.7442 15.3974M84.7442 15.3974C84.8535 15.4052 84.9627 15.3822 85.0596 15.3311L84.7442 15.3974Z" stroke="#FECB1C" stroke-width="0.515458"/>
</svg>
