<svg width="97" height="16" viewBox="0 0 97 16" fill="none" xmlns="http://www.w3.org/2000/svg">
<path d="M15.7207 5.82362L11.0631 5.14671L8.98098 0.925658C8.92412 0.810089 8.83056 0.716532 8.71499 0.659664C8.42515 0.516578 8.07293 0.635817 7.92801 0.925658L5.84592 5.14671L1.18828 5.82362C1.05987 5.84196 0.942461 5.9025 0.852574 5.99422C0.743905 6.10591 0.684023 6.25618 0.686087 6.412C0.688151 6.56782 0.751991 6.71645 0.86358 6.82522L4.23345 10.1107L3.4373 14.75C3.41863 14.8579 3.43057 14.9689 3.47177 15.0704C3.51297 15.1719 3.58178 15.2598 3.6704 15.3241C3.75902 15.3885 3.8639 15.4268 3.97314 15.4345C4.08239 15.4423 4.19163 15.4194 4.28848 15.3682L8.4545 13.1779L12.6205 15.3682C12.7343 15.4288 12.8663 15.4489 12.9929 15.4269C13.3121 15.3719 13.5267 15.0692 13.4717 14.75L12.6755 10.1107L16.0454 6.82522C16.1371 6.73533 16.1977 6.61793 16.216 6.48952C16.2655 6.16849 16.0417 5.87131 15.7207 5.82362Z" fill="#FECB1C"/>
<path d="M36.4033 5.82362L31.7457 5.14671L29.6636 0.925658C29.6067 0.810089 29.5132 0.716532 29.3976 0.659664C29.1078 0.516578 28.7556 0.635817 28.6106 0.925658L26.5285 5.14671L21.8709 5.82362C21.7425 5.84196 21.6251 5.9025 21.5352 5.99422C21.4265 6.10591 21.3666 6.25618 21.3687 6.412C21.3708 6.56782 21.4346 6.71645 21.5462 6.82522L24.9161 10.1107L24.1199 14.75C24.1012 14.8579 24.1132 14.9689 24.1544 15.0704C24.1956 15.1719 24.2644 15.2598 24.353 15.3241C24.4416 15.3885 24.5465 15.4268 24.6558 15.4345C24.765 15.4423 24.8742 15.4194 24.9711 15.3682L29.1371 13.1779L33.3031 15.3682C33.4169 15.4288 33.5489 15.4489 33.6755 15.4269C33.9947 15.3719 34.2093 15.0692 34.1543 14.75L33.3582 10.1107L36.728 6.82522C36.8198 6.73533 36.8803 6.61793 36.8986 6.48952C36.9482 6.16849 36.7244 5.87131 36.4033 5.82362Z" fill="#FECB1C"/>
<path d="M56.3618 5.82362L51.7042 5.14671L49.6221 0.925658C49.5652 0.810089 49.4717 0.716532 49.3561 0.659664C49.0663 0.516578 48.714 0.635817 48.5691 0.925658L46.487 5.14671L41.8294 5.82362C41.701 5.84196 41.5836 5.9025 41.4937 5.99422C41.385 6.10591 41.3251 6.25618 41.3272 6.412C41.3293 6.56782 41.3931 6.71645 41.5047 6.82522L44.8746 10.1107L44.0784 14.75C44.0597 14.8579 44.0717 14.9689 44.1129 15.0704C44.1541 15.1719 44.2229 15.2598 44.3115 15.3241C44.4001 15.3885 44.505 15.4268 44.6143 15.4345C44.7235 15.4423 44.8327 15.4194 44.9296 15.3682L49.0956 13.1779L53.2616 15.3682C53.3754 15.4288 53.5074 15.4489 53.634 15.4269C53.9532 15.3719 54.1678 15.0692 54.1128 14.75L53.3167 10.1107L56.6865 6.82522C56.7783 6.73533 56.8388 6.61793 56.8571 6.48952C56.9067 6.16849 56.6829 5.87131 56.3618 5.82362Z" fill="#FECB1C"/>
<path d="M76.3208 5.82362L71.6632 5.14671L69.5811 0.925658C69.5242 0.810089 69.4307 0.716532 69.3151 0.659664C69.0252 0.516578 68.673 0.635817 68.5281 0.925658L66.446 5.14671L61.7884 5.82362C61.66 5.84196 61.5426 5.9025 61.4527 5.99422C61.344 6.10591 61.2841 6.25618 61.2862 6.412C61.2882 6.56782 61.3521 6.71645 61.4637 6.82522L64.8335 10.1107L64.0374 14.75C64.0187 14.8579 64.0307 14.9689 64.0719 15.0704C64.1131 15.1719 64.1819 15.2598 64.2705 15.3241C64.3591 15.3885 64.464 15.4268 64.5732 15.4345C64.6825 15.4423 64.7917 15.4194 64.8886 15.3682L69.0546 13.1779L73.2206 15.3682C73.3343 15.4288 73.4664 15.4489 73.593 15.4269C73.9122 15.3719 74.1268 15.0692 74.0718 14.75L73.2756 10.1107L76.6455 6.82522C76.7372 6.73533 76.7978 6.61793 76.8161 6.48952C76.8656 6.16849 76.6418 5.87131 76.3208 5.82362Z" fill="#FECB1C"/>
<path d="M81.4112 5.99422C81.3025 6.10591 81.2426 6.25618 81.2447 6.412C81.2467 6.56782 81.3106 6.71645 81.4222 6.82522L84.792 10.1107L83.9959 14.75L96.4236 6.64113L93.0542 9.92615L92.9572 10.0207L92.9801 10.1543L93.7762 14.7936L93.7763 14.7938C93.807 14.9721 93.6872 15.142 93.5077 15.1729L93.5073 15.173C93.436 15.1854 93.3623 15.1737 93.3002 15.1407L93.2991 15.1401L89.133 12.9497L89.0131 12.8867L88.8931 12.9497L84.7271 15.1401L84.7267 15.1403C84.6725 15.1689 84.6113 15.1818 84.5501 15.1774C84.4889 15.1731 84.4301 15.1516 84.3805 15.1156C84.3308 15.0795 84.2923 15.0303 84.2692 14.9734C84.2461 14.9166 84.2394 14.8544 84.2499 14.7939L84.2499 14.7936L85.0461 10.1543L85.069 10.0207L84.972 9.92615L81.6021 6.64066L81.6021 6.64065C81.5394 6.57956 81.5036 6.49609 81.5024 6.40859C81.5013 6.32123 81.5348 6.23698 81.5956 6.17429M81.4112 5.99422L81.5953 6.17463C81.5954 6.17452 81.5955 6.1744 81.5956 6.17429M81.4112 5.99422L81.5959 6.17396C81.5958 6.17407 81.5957 6.17418 81.5956 6.17429M81.4112 5.99422C81.5011 5.9025 81.6185 5.84196 81.7469 5.82362L86.4045 5.14671L88.4866 0.925658C88.6315 0.635817 88.9837 0.516578 89.2736 0.659664L96.4238 6.64097C96.4757 6.58999 96.5093 6.52423 96.5194 6.45307L96.5199 6.45021C96.5471 6.27354 96.4243 6.10592 96.2418 6.07863C96.2416 6.07861 96.2415 6.07859 96.2414 6.07858L91.5846 5.40179L91.4505 5.38229L91.3905 5.26073L89.3084 1.03968L89.3083 1.03946C89.2766 0.974941 89.2243 0.922688 89.1598 0.89094L89.1595 0.890793C88.9978 0.810969 88.7995 0.877035 88.7174 1.0404C88.7173 1.04058 88.7172 1.04076 88.7172 1.04093L86.6357 5.26073L86.5757 5.38229L86.4416 5.40179L81.7839 6.0787L81.7833 6.07879C81.7122 6.08894 81.6465 6.12245 81.5956 6.17429" stroke="#FECB1C" stroke-width="0.515517"/>
</svg>
