<svg width="244" height="21" viewBox="0 0 244 21" fill="none" xmlns="http://www.w3.org/2000/svg">
<path d="M187.472 4.6561C186.829 4.94076 186.147 5.12721 185.449 5.20921C186.184 4.76892 186.734 4.0765 186.997 3.26079C186.305 3.67061 185.549 3.95998 184.761 4.11658C184.278 3.60021 183.651 3.24111 182.961 3.08597C182.271 2.93084 181.55 2.98685 180.893 3.24671C180.235 3.50658 179.671 3.95828 179.274 4.54309C178.876 5.12789 178.664 5.81874 178.664 6.52581C178.664 6.80272 178.695 7.07105 178.758 7.32793C177.356 7.25895 175.985 6.89546 174.733 6.26114C173.482 5.62682 172.378 4.73591 171.494 3.64646C171.18 4.1842 171.015 4.7961 171.017 5.41886C171.017 6.6403 171.637 7.71933 172.585 8.35116C172.025 8.3334 171.478 8.18176 170.989 7.90895V7.95403C170.988 8.76773 171.27 9.55649 171.785 10.1863C172.3 10.816 173.018 11.248 173.815 11.4087C173.297 11.5509 172.752 11.572 172.224 11.4702C172.449 12.1702 172.887 12.7825 173.477 13.2215C174.067 13.6605 174.779 13.9043 175.514 13.9188C174.783 14.4924 173.946 14.9163 173.052 15.1662C172.157 15.416 171.221 15.487 170.299 15.3749C171.909 16.4112 173.784 16.9615 175.699 16.9598C182.181 16.9598 185.725 11.5904 185.725 6.93367C185.725 6.7834 185.72 6.62885 185.714 6.47787C186.403 5.97917 186.998 5.36267 187.472 4.65681V4.6561Z" fill="#173F5F"/>
<path d="M8.05272 0C5.23205 0 3.57771 1.48976 3.57771 4.88429V7.87097H0V11.4487H3.57771V20.0352H7.15543V11.4487H10.0176L10.7331 7.87097H7.15543V5.48964C7.15543 4.21097 7.57259 3.57771 8.77255 3.57771H10.7331V0.146686C10.394 0.100891 9.40581 0 8.05272 0Z" fill="#173F5F"/>
<path d="M58.2946 1.99994C55.7537 1.99994 53.6658 4.08503 53.6658 6.62878V13.113C53.6658 15.6539 55.7509 17.7419 58.2946 17.7419H64.7789C67.3198 17.7419 69.4077 15.6568 69.4077 13.113V6.6295C69.4077 4.08789 67.3226 1.99994 64.7789 1.99994H58.2946ZM58.2946 3.43102H64.7789C65.199 3.43046 65.615 3.51279 66.0033 3.67329C66.3915 3.83379 66.7442 4.06931 67.0413 4.36637C67.3383 4.66342 67.5739 5.01616 67.7344 5.40439C67.8949 5.79261 67.9772 6.20869 67.9766 6.62878V13.113C67.9772 13.5331 67.8949 13.9492 67.7344 14.3374C67.5739 14.7257 67.3383 15.0784 67.0413 15.3754C66.7442 15.6725 66.3915 15.908 66.0033 16.0685C65.615 16.229 65.199 16.3114 64.7789 16.3108H58.2953C57.8752 16.3114 57.459 16.2292 57.0707 16.0687C56.6824 15.9083 56.3296 15.6728 56.0325 15.3757C55.7353 15.0786 55.4997 14.7259 55.3392 14.3376C55.1786 13.9493 55.0963 13.5332 55.0969 13.113V6.6295C55.0962 6.20934 55.1785 5.79319 55.3389 5.40488C55.4994 5.01657 55.7349 4.66375 56.0319 4.36662C56.329 4.06949 56.6818 3.8339 57.0701 3.67336C57.4583 3.51281 57.8745 3.43046 58.2946 3.43102ZM65.7627 4.99663C65.6775 4.99625 65.593 5.01276 65.5142 5.04521C65.4354 5.07765 65.3638 5.12539 65.3035 5.18566C65.2432 5.24594 65.1955 5.31755 65.163 5.39638C65.1306 5.4752 65.1141 5.55967 65.1145 5.64491C65.1145 6.00555 65.4021 6.29319 65.7627 6.29319C65.848 6.29367 65.9326 6.27723 66.0115 6.24483C66.0904 6.21242 66.1621 6.1647 66.2224 6.10442C66.2828 6.04413 66.3306 5.97248 66.3631 5.89361C66.3956 5.81474 66.4121 5.73021 66.4117 5.64491C66.4121 5.55961 66.3956 5.47508 66.3631 5.39621C66.3306 5.31734 66.2828 5.24569 66.2224 5.18541C66.1621 5.12512 66.0904 5.0774 66.0115 5.045C65.9326 5.0126 65.848 4.99616 65.7627 4.99663ZM61.5367 5.57765C59.1754 5.57765 57.2435 7.50962 57.2435 9.87091C57.2435 12.2322 59.1754 14.1642 61.5367 14.1642C63.898 14.1642 65.83 12.2322 65.83 9.87091C65.83 7.50962 63.898 5.57765 61.5367 5.57765ZM61.5367 7.00874C63.1274 7.00874 64.3989 8.28026 64.3989 9.87091C64.3989 11.4616 63.1274 12.7331 61.5367 12.7331C59.9461 12.7331 58.6746 11.4616 58.6746 9.87091C58.6746 8.28026 59.9461 7.00874 61.5367 7.00874Z" fill="#173F5F"/>
<path d="M114.231 1.99994C113.983 1.99975 113.737 2.04847 113.508 2.14331C113.278 2.23815 113.07 2.37725 112.894 2.55267C112.719 2.7281 112.579 2.9364 112.484 3.16569C112.389 3.39497 112.34 3.64075 112.34 3.88897C112.34 4.93366 113.187 5.79947 114.229 5.79947C115.273 5.79947 116.12 4.93366 116.12 3.8904C116.12 3.64221 116.072 3.39642 115.977 3.16706C115.882 2.93771 115.743 2.72929 115.568 2.55373C115.392 2.37817 115.184 2.23889 114.954 2.14387C114.725 2.04885 114.479 1.99994 114.231 1.99994ZM123.456 7.00874C121.868 7.00874 120.96 7.83877 120.524 8.6645H120.478V7.23127H117.349V17.7419H120.61V12.5392C120.61 11.1682 120.713 9.843 122.409 9.843C124.081 9.843 124.106 11.4065 124.106 12.6257V17.7419H127.366V11.9689C127.366 9.14392 126.759 7.00874 123.456 7.00874ZM112.6 7.23056V17.7419H115.863V7.23056H112.6Z" fill="#173F5F"/>
<path d="M234.698 3.00012C233.559 3.00012 232.467 3.45245 231.662 4.25759C230.857 5.06273 230.405 6.15474 230.405 7.29338V12.3022C230.405 13.4408 230.857 14.5328 231.662 15.338C232.467 16.1431 233.559 16.5954 234.698 16.5954H239.707C240.845 16.5954 241.937 16.1431 242.743 15.338C243.548 14.5328 244 13.4408 244 12.3022V8.72446C244 8.53469 243.925 8.35269 243.791 8.2185C243.656 8.08431 243.474 8.00892 243.285 8.00892H242.569C242.379 8.00892 242.197 7.93353 242.063 7.79934C241.929 7.66515 241.853 7.48315 241.853 7.29338C241.853 6.15474 241.401 5.06273 240.596 4.25759C239.791 3.45245 238.699 3.00012 237.56 3.00012H234.698ZM234.698 6.57783H237.56C237.954 6.57783 238.276 6.89983 238.276 7.29338C238.276 7.68693 237.954 8.00892 237.56 8.00892H234.698C234.304 8.00892 233.982 7.68693 233.982 7.29338C233.982 6.89983 234.304 6.57783 234.698 6.57783ZM234.698 11.5866H239.707C240.1 11.5866 240.422 11.9086 240.422 12.3022C240.422 12.6957 240.1 13.0177 239.707 13.0177H234.698C234.304 13.0177 233.982 12.6957 233.982 12.3022C233.982 11.9086 234.304 11.5866 234.698 11.5866Z" fill="#173F5F"/>
</svg>
