<svg width="14" height="11" viewBox="0 0 14 11" fill="none" xmlns="http://www.w3.org/2000/svg">
<path d="M13.3972 1.25322C12.9317 1.46798 12.4379 1.60864 11.9323 1.67051C12.4646 1.33834 12.863 0.815956 13.0533 0.20056C12.5526 0.509738 12.0053 0.728054 11.4345 0.846192C11.0848 0.456628 10.6307 0.185713 10.1313 0.0686754C9.63192 -0.0483624 9.11028 -0.00610832 8.63422 0.189943C8.15817 0.385994 7.74973 0.726772 7.46202 1.16797C7.17431 1.60916 7.02063 2.13036 7.02097 2.66379C7.02097 2.8727 7.04325 3.07514 7.08832 3.26893C6.07379 3.21689 5.08117 2.94266 4.17514 2.46411C3.26911 1.98556 2.47002 1.31343 1.82993 0.491526C1.60251 0.897208 1.48322 1.35884 1.48441 1.82868C1.48441 2.75016 1.93353 3.56422 2.61939 4.04088C2.21428 4.02749 1.81815 3.91309 1.46421 3.70727V3.74128C1.46386 4.35516 1.6675 4.95022 2.04051 5.42534C2.41352 5.90047 2.9329 6.22633 3.51038 6.34756C3.13485 6.45488 2.74067 6.47077 2.35831 6.39399C2.52118 6.9221 2.83827 7.38402 3.26529 7.7152C3.69232 8.04639 4.20794 8.23031 4.74015 8.24127C4.21107 8.67404 3.60528 8.99382 2.95747 9.18232C2.30966 9.37083 1.63253 9.42435 0.964844 9.33982C2.13065 10.1216 3.48797 10.5368 4.87431 10.5355C9.56651 10.5355 12.1328 6.48468 12.1328 2.97149C12.1328 2.85812 12.1286 2.74152 12.1245 2.62762C12.6231 2.25139 13.054 1.78628 13.3972 1.25376V1.25322Z" fill="#173F5F"/>
</svg>
