<svg width="14" height="11" viewBox="0 0 14 11" fill="none" xmlns="http://www.w3.org/2000/svg">
<path d="M13.2732 1.25322C12.8077 1.46798 12.3139 1.60864 11.8083 1.67051C12.3406 1.33834 12.7389 0.815956 12.9293 0.20056C12.4286 0.509738 11.8812 0.728054 11.3104 0.846192C10.9608 0.456628 10.5067 0.185713 10.0073 0.0686754C9.5079 -0.0483624 8.98625 -0.00610832 8.5102 0.189943C8.03415 0.385994 7.62571 0.726772 7.338 1.16797C7.05028 1.60916 6.89661 2.13036 6.89695 2.66379C6.89695 2.8727 6.91922 3.07514 6.96429 3.26893C5.94976 3.21689 4.95714 2.94266 4.05112 2.46411C3.14509 1.98556 2.346 1.31343 1.70591 0.491526C1.47849 0.897208 1.3592 1.35884 1.36039 1.82868C1.36039 2.75016 1.80951 3.56422 2.49536 4.04088C2.09025 4.02749 1.69413 3.91309 1.34019 3.70727V3.74128C1.33984 4.35516 1.54347 4.95022 1.91649 5.42534C2.2895 5.90047 2.80888 6.22633 3.38635 6.34756C3.01083 6.45488 2.61664 6.47077 2.23428 6.39399C2.39715 6.9221 2.71425 7.38402 3.14127 7.7152C3.56829 8.04639 4.08392 8.23031 4.61612 8.24127C4.08704 8.67404 3.48126 8.99382 2.83345 9.18232C2.18563 9.37083 1.50851 9.42435 0.84082 9.33982C2.00663 10.1216 3.36395 10.5368 4.75029 10.5355C9.44248 10.5355 12.0087 6.48468 12.0087 2.97149C12.0087 2.85812 12.0046 2.74152 12.0004 2.62762C12.4991 2.25139 12.9299 1.78628 13.2732 1.25376V1.25322Z" fill="#173F5F"/>
</svg>
