<svg width="11" height="11" viewBox="0 0 11 11" fill="none" xmlns="http://www.w3.org/2000/svg">
<path d="M3.44972 0.00390625C1.75174 0.00390625 0.356445 1.39887 0.356445 3.10068V7.43876C0.356445 9.13866 1.74983 10.5355 3.44972 10.5355H7.78289C9.48087 10.5355 10.8762 9.14057 10.8762 7.43876V3.10116C10.8762 1.40078 9.48278 0.00390625 7.78289 0.00390625H3.44972ZM3.44972 0.961327H7.78289C8.06362 0.960949 8.34167 1.01603 8.6011 1.12341C8.86054 1.23078 9.09626 1.38835 9.29477 1.58709C9.49328 1.78582 9.65067 2.02181 9.75793 2.28154C9.86519 2.54127 9.9202 2.81963 9.91983 3.10068V7.43876C9.9202 7.71981 9.86519 7.99817 9.75793 8.2579C9.65067 8.51763 9.49328 8.75362 9.29477 8.95236C9.09626 9.15109 8.86054 9.30866 8.6011 9.41604C8.34167 9.52342 8.06362 9.57849 7.78289 9.57812H3.4502C3.16943 9.57856 2.89133 9.52353 2.63183 9.41617C2.37234 9.30882 2.13656 9.15127 1.938 8.95253C1.73945 8.75379 1.58201 8.51777 1.47472 8.25801C1.36744 7.99825 1.31241 7.71985 1.31278 7.43876V3.10116C1.31234 2.82007 1.36731 2.54166 1.47454 2.28187C1.58177 2.02209 1.73915 1.78604 1.93767 1.58726C2.13618 1.38847 2.37193 1.23086 2.63139 1.12345C2.89086 1.01604 3.16895 0.960949 3.44972 0.961327ZM8.44037 2.00875C8.38341 2.00849 8.32696 2.01954 8.27428 2.04124C8.22161 2.06295 8.17375 2.09489 8.13347 2.13521C8.09319 2.17554 8.06129 2.22345 8.03961 2.27618C8.01793 2.32892 8.0069 2.38543 8.00715 2.44246C8.00715 2.68373 8.19937 2.87617 8.44037 2.87617C8.49737 2.87649 8.55387 2.86549 8.6066 2.84381C8.65933 2.82213 8.70725 2.7902 8.74758 2.74987C8.78791 2.70954 8.81985 2.66161 8.84156 2.60884C8.86328 2.55608 8.87432 2.49952 8.87407 2.44246C8.87432 2.38539 8.86328 2.32884 8.84156 2.27607C8.81985 2.22331 8.78791 2.17537 8.74758 2.13504C8.70725 2.09471 8.65933 2.06278 8.6066 2.04111C8.55387 2.01943 8.49737 2.00843 8.44037 2.00875ZM5.6163 2.39746C4.03835 2.39746 2.74729 3.68998 2.74729 5.26972C2.74729 6.84947 4.03835 8.14198 5.6163 8.14198C7.19426 8.14198 8.48532 6.84947 8.48532 5.26972C8.48532 3.68998 7.19426 2.39746 5.6163 2.39746ZM5.6163 3.35488C6.67927 3.35488 7.52898 4.20555 7.52898 5.26972C7.52898 6.33389 6.67927 7.18456 5.6163 7.18456C4.55333 7.18456 3.70363 6.33389 3.70363 5.26972C3.70363 4.20555 4.55333 3.35488 5.6163 3.35488Z" fill="#173F5F"/>
</svg>
