<svg width="11" height="11" viewBox="0 0 11 11" fill="none" xmlns="http://www.w3.org/2000/svg">
<path d="M3.5735 0.00390625C1.87552 0.00390625 0.480225 1.39887 0.480225 3.10068V7.43876C0.480225 9.13866 1.87361 10.5355 3.5735 10.5355H7.90667C9.60465 10.5355 10.9999 9.14057 10.9999 7.43876V3.10116C10.9999 1.40078 9.60656 0.00390625 7.90667 0.00390625H3.5735ZM3.5735 0.961327H7.90667C8.1874 0.960949 8.46545 1.01603 8.72488 1.12341C8.98432 1.23078 9.22004 1.38835 9.41855 1.58709C9.61706 1.78582 9.77445 2.02181 9.88171 2.28154C9.98897 2.54127 10.044 2.81963 10.0436 3.10068V7.43876C10.044 7.71981 9.98897 7.99817 9.88171 8.2579C9.77445 8.51763 9.61706 8.75362 9.41855 8.95236C9.22004 9.15109 8.98432 9.30866 8.72488 9.41604C8.46545 9.52342 8.1874 9.57849 7.90667 9.57812H3.57398C3.29321 9.57856 3.01511 9.52353 2.75561 9.41617C2.49612 9.30882 2.26034 9.15127 2.06178 8.95253C1.86322 8.75379 1.70579 8.51777 1.5985 8.25801C1.49122 7.99825 1.43618 7.71985 1.43656 7.43876V3.10116C1.43612 2.82007 1.49109 2.54166 1.59832 2.28187C1.70555 2.02209 1.86293 1.78604 2.06145 1.58726C2.25996 1.38847 2.4957 1.23086 2.75517 1.12345C3.01464 1.01604 3.29273 0.960949 3.5735 0.961327ZM8.56415 2.00875C8.50719 2.00849 8.45074 2.01954 8.39806 2.04124C8.34539 2.06295 8.29753 2.09489 8.25725 2.13521C8.21697 2.17554 8.18507 2.22345 8.16339 2.27618C8.14171 2.32892 8.13068 2.38543 8.13093 2.44246C8.13093 2.68373 8.32315 2.87617 8.56415 2.87617C8.62115 2.87649 8.67765 2.86549 8.73038 2.84381C8.78311 2.82213 8.83103 2.7902 8.87136 2.74987C8.91169 2.70954 8.94363 2.66161 8.96534 2.60884C8.98705 2.55608 8.9981 2.49952 8.99785 2.44246C8.9981 2.38539 8.98705 2.32884 8.96534 2.27607C8.94363 2.22331 8.91169 2.17537 8.87136 2.13504C8.83103 2.09471 8.78311 2.06278 8.73038 2.04111C8.67765 2.01943 8.62115 2.00843 8.56415 2.00875ZM5.74008 2.39746C4.16213 2.39746 2.87107 3.68998 2.87107 5.26972C2.87107 6.84947 4.16213 8.14198 5.74008 8.14198C7.31804 8.14198 8.6091 6.84947 8.6091 5.26972C8.6091 3.68998 7.31804 2.39746 5.74008 2.39746ZM5.74008 3.35488C6.80305 3.35488 7.65276 4.20555 7.65276 5.26972C7.65276 6.33389 6.80305 7.18456 5.74008 7.18456C4.67711 7.18456 3.82741 6.33389 3.82741 5.26972C3.82741 4.20555 4.67711 3.35488 5.74008 3.35488Z" fill="#173F5F"/>
</svg>
