<svg width="12" height="11" viewBox="0 0 12 11" fill="none" xmlns="http://www.w3.org/2000/svg">
<path d="M4.01173 0.00390625C2.31375 0.00390625 0.918457 1.39887 0.918457 3.10068V7.43876C0.918457 9.13866 2.31184 10.5355 4.01173 10.5355H8.3449C10.0429 10.5355 11.4382 9.14057 11.4382 7.43876V3.10116C11.4382 1.40078 10.0448 0.00390625 8.3449 0.00390625H4.01173ZM4.01173 0.961327H8.3449C8.62563 0.960949 8.90368 1.01603 9.16312 1.12341C9.42255 1.23078 9.65828 1.38835 9.85678 1.58709C10.0553 1.78582 10.2127 2.02181 10.3199 2.28154C10.4272 2.54127 10.4822 2.81963 10.4818 3.10068V7.43876C10.4822 7.71981 10.4272 7.99817 10.3199 8.2579C10.2127 8.51763 10.0553 8.75362 9.85678 8.95236C9.65828 9.15109 9.42255 9.30866 9.16312 9.41604C8.90368 9.52342 8.62563 9.57849 8.3449 9.57812H4.01221C3.73144 9.57856 3.45334 9.52353 3.19385 9.41617C2.93436 9.30882 2.69857 9.15127 2.50002 8.95253C2.30146 8.75379 2.14402 8.51777 2.03674 8.25801C1.92945 7.99825 1.87442 7.71985 1.8748 7.43876V3.10116C1.87435 2.82007 1.92932 2.54166 2.03655 2.28187C2.14378 2.02209 2.30116 1.78604 2.49968 1.58726C2.69819 1.38847 2.93394 1.23086 3.1934 1.12345C3.45287 1.01604 3.73096 0.960949 4.01173 0.961327ZM9.00238 2.00875C8.94542 2.00849 8.88897 2.01954 8.8363 2.04124C8.78362 2.06295 8.73576 2.09489 8.69548 2.13521C8.65521 2.17554 8.6233 2.22345 8.60162 2.27618C8.57994 2.32892 8.56891 2.38543 8.56916 2.44246C8.56916 2.68373 8.76138 2.87617 9.00238 2.87617C9.05938 2.87649 9.11588 2.86549 9.16862 2.84381C9.22135 2.82213 9.26926 2.7902 9.30959 2.74987C9.34992 2.70954 9.38186 2.66161 9.40357 2.60884C9.42529 2.55608 9.43633 2.49952 9.43608 2.44246C9.43633 2.38539 9.42529 2.32884 9.40357 2.27607C9.38186 2.22331 9.34992 2.17537 9.30959 2.13504C9.26926 2.09471 9.22135 2.06278 9.16862 2.04111C9.11588 2.01943 9.05938 2.00843 9.00238 2.00875ZM6.17832 2.39746C4.60036 2.39746 3.3093 3.68998 3.3093 5.26972C3.3093 6.84947 4.60036 8.14198 6.17832 8.14198C7.75627 8.14198 9.04733 6.84947 9.04733 5.26972C9.04733 3.68998 7.75627 2.39746 6.17832 2.39746ZM6.17832 3.35488C7.24129 3.35488 8.09099 4.20555 8.09099 5.26972C8.09099 6.33389 7.24129 7.18456 6.17832 7.18456C5.11535 7.18456 4.26564 6.33389 4.26564 5.26972C4.26564 4.20555 5.11535 3.35488 6.17832 3.35488Z" fill="#173F5F"/>
</svg>
