<svg width="18" height="18" viewBox="0 0 18 18" fill="none" xmlns="http://www.w3.org/2000/svg">
<path d="M11.0013 0C7.14359 0 4.00257 3.1409 4.00257 6.99844C4.00257 8.67457 4.59046 10.2107 5.57728 11.4166L0 16.9922L1.00712 18L6.58369 12.4229C7.82914 13.444 9.39078 14.0004 11.0013 13.9969C14.859 13.9969 18 10.856 18 6.99844C18 3.1409 14.859 0 11.0013 0ZM11.0013 1.39969C14.1017 1.39969 16.6003 3.89813 16.6003 6.99844C16.6003 10.0988 14.1017 12.5972 11.0013 12.5972C7.90085 12.5972 5.40231 10.0988 5.40231 6.99844C5.40231 3.89813 7.90085 1.39969 11.0013 1.39969Z" fill="#111111"/>
</svg>
