<svg width="13" height="11" viewBox="0 0 13 11" fill="none" xmlns="http://www.w3.org/2000/svg">
<path d="M12.8352 1.25322C12.3697 1.46798 11.8759 1.60864 11.3703 1.67051C11.9026 1.33834 12.301 0.815956 12.4913 0.20056C11.9906 0.509738 11.4432 0.728054 10.8725 0.846192C10.5228 0.456628 10.0687 0.185713 9.56932 0.0686754C9.06991 -0.0483624 8.54827 -0.00610832 8.07221 0.189943C7.59616 0.385994 7.18772 0.726772 6.90001 1.16797C6.6123 1.60916 6.45862 2.13036 6.45896 2.66379C6.45896 2.8727 6.48124 3.07514 6.5263 3.26893C5.51178 3.21689 4.51915 2.94266 3.61313 2.46411C2.7071 1.98556 1.90801 1.31343 1.26792 0.491526C1.0405 0.897208 0.921213 1.35884 0.922402 1.82868C0.922402 2.75016 1.37152 3.56422 2.05738 4.04088C1.65227 4.02749 1.25614 3.91309 0.9022 3.70727V3.74128C0.901849 4.35516 1.10548 4.95022 1.4785 5.42534C1.85151 5.90047 2.37089 6.22633 2.94836 6.34756C2.57284 6.45488 2.17866 6.47077 1.7963 6.39399C1.95917 6.9221 2.27626 7.38402 2.70328 7.7152C3.13031 8.04639 3.64593 8.23031 4.17814 8.24127C3.64906 8.67404 3.04327 8.99382 2.39546 9.18232C1.74764 9.37083 1.07052 9.42435 0.402832 9.33982C1.56864 10.1216 2.92596 10.5368 4.3123 10.5355C9.00449 10.5355 11.5707 6.48468 11.5707 2.97149C11.5707 2.85812 11.5666 2.74152 11.5625 2.62762C12.0611 2.25139 12.492 1.78628 12.8352 1.25376V1.25322Z" fill="#173F5F"/>
</svg>
